<svg id="brushstroke" xmlns="http://www.w3.org/2000/svg" viewBox="0 0 647 42.4">
  <defs>
    <style>
      .cls-1{fill:#919f80}.cls-3{fill:#97a487}.cls-6{fill:#9eab8f}.cls-8{fill:#8a9979}.cls-10,.cls-9{fill:#bac3b0}.cls-11{fill:#8d9c7c}.cls-15{fill:#c5ccbc}.cls-17{fill:#899877}.cls-18{fill:#9aa78a}.cls-10{opacity:.8}
    </style>
  </defs>
  <g style="opacity:.8">
    <path class="cls-9" d="M11.9 16c-2.97-2.2-5.21-4.5-6.69-6.9L0 7.6l11.16 1.2c20.08 1.4 45.37 2 61.72 4.3-4.84-.2-10.6-.22-16.09-.22h-5.35c-3.44 0-6.57-.01-9.05-.08l1.49-.2L32.72 14l-11.16-.1 11.16.1-20.82 2m325.05-5.92-.48-.05 2.65-.53c10.41-.6 20.82-1.2 30.49-2.1 11.77-.83 24.06-1.25 36.87-1.25 2.56.02 5.14.03 7.75.05l-15.62 1.6h-1.53c-22.06 0-40.11 2.04-60.14 2.29"/>
    <path class="cls-6" d="M412.74 1.7C424.63 1 437.28.5 449.92 0v.9c-7 .16-14.46.62-22.01.62-2.08 0-4.16-.03-6.25-.12l1.49.2-10.41.1m26.77.7 11.16-.6 1.48.2-12.64.4m-105.6 25.4-2.97-.3 3.72.2-.75.1m114.53 8-5.21-.5 5.21.5m67.67-28.7-3.72-.5 3.72.5m-45.36 26.5-1.5-.2 1.5.2M194.27 4.99l-8.35-1.19 8.35 1.19M330.94 27.5l-5.95-.8 5.95.8m175.5-22.6-5.2-.3 4.46.2.74.1m16.36 2.8-6.69-.6 4.46.3 2.23.3m-47.59-3.6 8.18-.5 1.49.1-1.49-.1 1.49.1v.1l-9.67.3"/>
    <path class="cls-6" d="m516.11 5.9-9.67-1-5.2-.3 4.46.2c-9.67-.9-20.08-1.7-31.24-2.2l-1.49.5 14.87.3-4.46.2 1.49.1 2.97.1h-2.97l14.87 1-5.95-.7 7.44.7h-1.49l6.68.8 9.67.3m-14.87-1.1h1.49-1.49"/>
    <path class="cls-8" d="m505.7 4.8-4.46-.2 4.46.2m-20.82-1.1-1.49-.1 1.49.1"/>
    <path class="cls-6" d="m533.96 7.9-3.72-.2-5.2-.3L509.42 6l-2.98-.4 9.67.3 17.85 2m-46.11-4.1h-2.97v-.1l2.97.1"/>
    <path class="cls-6" d="m535.45 8-2.92-.07-2.29-.23 3.72.2 1.49.1m-2.23 0-.69-.07.69.07m-1.99-.1-8.43-.2h4.47l3.96.2"/>
    <path class="cls-8" d="m484.88 3.7-1.49-.1 1.49.1"/>
    <path class="cls-6" d="m533.22 8-1.99-.1 1.99.1m-.69-.07-1.3-.03-3.96-.2-2.23-.3 5.2.3-5.2-.3 5.2.3 2.29.23"/>
    <path class="cls-8" d="m533.22 8-1.99-.1 1.3.03.69.07m-1.99-.1-3.96-.2 3.96.2m-.99-.2-5.2-.3 5.2.3"/>
    <path class="cls-6" d="M527.27 7.7h-4.47l-2.23-.3 6.7.3"/>
    <path class="cls-8" d="m522.8 7.7-2.23-.3 2.23.3"/>
    <path class="cls-6" d="m527.27 7.7-6.7-.3-3.71-.6 7.43.6h.75l2.23.3"/>
    <path class="cls-8" d="m527.27 7.7-6.7-.3 6.7.3"/>
    <path class="cls-6" d="M501.24 4.8h-1.49l-5.95-.7 7.44.7"/>
    <path class="cls-8" d="m499.75 4.8-5.95-.7 5.95.7"/>
    <path class="cls-6" d="m509.42 6-4.46-.3 1.48-.1 2.98.4m15.62 1.4h-.75L509.42 6l15.62 1.4m-60.99 19.8-11.15-1 12.64.9-1.49.1m-5.2.4L448.44 26l13.38 1.4-2.97.2m-8.18 3.1c-10.41-.1-20.08-.2-28.26-1.1l14.13.4h-.74l14.87.7"/>
    <path class="cls-6" d="M450.67 30.7 435.8 30h.74l14.13.7"/>
    <path class="cls-8" d="M450.67 30.7 435.8 30l14.87.7"/>
    <path class="cls-6" d="m455.87 27.7-3.72-.5 6.7.4-2.98.1m30.49-.4-4.46-.2 4.46.2"/>
    <path class="cls-15" d="m638.07 24 3.72-.3 5.21-.8c-8.18-.6-16.36-1.2-26.03-1.4l2.97.4c-10.41-.1-17.85-1-26.77-1.3 12.64 1.2 29.01 1.8 40.9 3.4"/>
    <path class="cls-6" d="m581.56 21.5-2.98-.1 2.98.1m39.41 0-4.46-.1 4.46.1m-34.95.3-4.46-.3 4.46.3m-101.14 2.8-4.46-.2-4.47-.6 8.93.6v.2"/>
    <path class="cls-6" d="m484.88 24.8-4.46-.4 4.46.2v.2m1.48 1.3-3.71-.4-8.93-1.1 11.16.7 1.48.8m0 .1-3.71-.5 3.71.4v.1m.75.3-10.42-1.1 5.96.3 3.71.5.75.3"/>
    <path class="cls-15" d="m484.88 24.4-8.93-.6 4.46.6c-8.18-.3-17.85-.4-26.04-.9 4.38-.18 8.77-.24 13.14-.24 7.52 0 15.04.18 22.56.24l-5.2.9"/>
    <path style="fill:#93a183" d="m484.88 24.4-8.93-.6 8.93.6"/>
    <path class="cls-6" d="M493.8 23.3c-11.16-.6-23.8-.9-31.98-2.2.82 0 1.62 0 2.41-.01 15.37 0 26.11 1.72 41.72 1.72h1.25c-7.44-.9-19.34-1.6-26.77-2.5 11.9.8 23.05 1.8 34.21 2.8l-20.83.2m-17.86-2.91-15.61-1.9 6.69.4 8.92 1.5m-36.44-3.2-2.23-.1-.74-.1 2.97.2m13.39 1-3.72-.3-9.67-.7-2.23-.1 15.62 1.1m-3.72-.3-9.67-.7 9.67.7"/>
    <path class="cls-6" d="m467.03 18.9-6.69-.4-11.16-.6-9.67-.7-2.97-.2.74.1-14.13-1.7 16.35.3c8.19 1.2 18.6 2.1 27.52 3.2"/>
    <path class="cls-8" d="m467.03 18.9-6.69-.4 6.69.4m-27.52-1.7-2.97-.2 2.97.2m9.67.7-9.67-.7 9.67.7m0 0-9.67-.7 9.67.7"/>
    <path class="cls-6" d="M435.05 15c-8.18-.3-15.62-.7-21.57-1.5l17.85-.3-2.23.6 5.95 1.2M266.98 32.5l-6.69-.8 2.23-.2 4.46 1"/>
    <path class="cls-3" d="M63.21 33.5C48.34 30.3 36.44 27 26.77 23.4l22.31.3c24.08.7 48.15 3.08 47.82 6.48-.05.49-.6.99-1.71 1.52-11.16.3-22.31 1.1-31.98 1.8"/>
    <path class="cls-6" d="m151.71 32.2-2.97-.4c5.21-.4 5.95-1.4 14.87-1.5-1.49 1-6.7 1.4-11.9 1.9"/>
    <path d="M123.45 33.4c-5.97-1.37-13.87-1.76-22.14-1.76-2.02 0-4.07.02-6.12.06 1.11-.52 1.66-1.03 1.71-1.52.33-3.4-23.74-5.78-47.82-6.48 18.43.17 36.86.31 55.29.37 6.15 0 12.29.02 18.44.03 17.81 0 35.63-.09 53.44-.3l-2.23-.9c-4.27-.08-8.56-.13-12.85-.15-4.17 0-8.33-.02-12.46-.03h-3.86c-7.69 0-15.23 0-22.45-.14-7.21-.13-14.11-.39-20.51-.88 9.97-.44 20.29-.64 30.63-.64 6.86 0 13.73.09 20.51.26 20.38.52 40.08 1.78 56.69 3.58 5.95.6 14.87.9 23.8 1.1l-12.64-.2-1.49.9 17.1 2.1-4.46-.2-16.36-.6-14.87-.5c-3.07-.12-6.14-.17-9.22-.17-9.64 0-19.49.49-30.19.87l12.64.5c2.09.3 3.1.6 3.3.9.83 1.29-13.86 2.47-24.13 2.8l-1.49-.2c5.2-.5 10.41-.9 11.9-1.9-8.93.1-9.67 1.1-14.87 1.5l-2.97-1.2-10.41-1c5.2-1.6-12.64-1.2-11.16-2.6l-17.85-1-9.67 1.5c13.38 1.6 27.52 3.3 26.77 5.9" style="fill:#b0baa4"/>
    <path d="M96.9 30.18c.33-3.4-23.74-5.78-47.82-6.48 24.08.7 48.15 3.08 47.82 6.48" style="fill:#8b9a79"/>
    <path d="M148.74 31.8c5.21-.4 5.95-1.4 14.87-1.5-8.93.1-9.67 1.1-14.87 1.5" style="fill:#8e9d7d"/>
    <path class="cls-6" d="m246.9 30-10.41-1.2-4.46-.2-16.36-.6-.74.2 14.13.8-15.61-.1c5.95.7 13.38.8 20.82 1l12.64.1m-14.87-1.4-16.36-.6 16.36.6"/>
    <path class="cls-8" d="m232.03 28.6-16.36-.6 16.36.6"/>
    <path class="cls-6" d="m149.47 32.4-.73-.6 2.97.4-2.24.2M79.58 14.6l-.75-.7.75.7"/>
    <path class="cls-10" d="M157.66 42.4c-19.34-2.8-5.95-6.7-8.19-10l2.24-.2 1.49.2c10.27-.33 24.96-1.51 24.13-2.8-.2-.3-1.21-.6-3.3-.9l-12.64-.5c10.69-.38 20.55-.87 30.19-.87 3.09 0 6.16.05 9.23.17l14.87.5-.74.2-13.39-.4c7.44 1 17.85 1.1 27.52 1.2l-15.61-.1c5.95.7 13.38.8 20.82 1l-2.23.5 8.92 2-17.11-1.4-5.94 1c5.94 1.7 13.38 3.8 25.29 5.2-15.62-1.6-27.52-4.1-49.09-4.7l-1.48.9-4.46-.6c5.21 1.7 16.36 2.5 20.82 4.2l-13.38-1.6c.74 1.1 7.44 1.9 9.67 2.8-11-1.38-12.6-4.7-25.45-4.7h-1.48c-22.89 0-22.76 3.74-13.22 6.5l-4.46-.5c-8.18.6-.74 2-2.97 2.9"/>
    <path class="cls-18" d="M177.32 29.6c-.2-.3-1.21-.6-3.3-.9l-12.64-.5 12.64.5c2.09.3 3.1.6 3.3.9m-15.94-1.4c10.69-.38 20.55-.87 30.19-.87-9.64 0-19.49.49-30.19.87"/>
    <path class="cls-1" d="m229.05 29-15.61-.1 15.61.1m-14.13-.8.75-.2-.75.2"/>
    <path class="cls-10" d="m258.06 26.4 2.97-.2 3.73-.6-4.46-.2 4.46.2.74-.8-10.41-1.1 5.94.3-8.92-1.1 11.16.7v-.5l-3.72-.4c-8.92-.4-18.59-.4-26.77-1 3.81-.13 7.63-.17 11.48-.17 8.13 0 16.37.21 24.96.27l2.97-.2c-11.16-.6-23.8-.9-31.98-2.2.82 0 1.61 0 2.4-.01 15.38 0 26.12 1.72 41.72 1.72h1.24c-7.44-.9-19.34-1.6-26.77-2.5 11.9.8 23.05 1.8 34.21 2.8h1.49c14.87.46 28.26.88 41.65 1.3l-17.11-1.3 17.11 1.3c21.56.8 41.64 1.6 62.47 2.7l-16.36-1.9c10.41-1 22.31-.7 31.98-1.1-15.62-.7-29.01-1.9-43.88-2.3 14.87.4 28.26 1.6 43.88 2.3l2.97-.1c-12.64-1.6-29-2.2-41.64-3.4 8.93.3 16.36 1.2 26.77 1.3l-2.97-.4-4.47-.1 4.47.1c9.67.2 17.84.8 26.03 1.4 8.92-1.3 19.33-2.6 29.75-2.7h5.2l-11.16-.6 3.72.3-15.62-1.1-14.13-1.7 16.35.3-4.46-.7c-8.18-.3-15.62-.7-21.57-1.5l17.85-.3 10.41-1.3-1.49-1.7c-6.32-1.32-16.62-2.11-29.01-2.11h-2.23l.74 1.5-3.71-1-6.69 1.1-6.7-.2c-3.72.9-8.56 1.15-13.76 1.15s-10.78-.25-15.99-.35l4.46.5c-2.38.64-5.24.85-8.24.85-4.51 0-9.31-.47-13.33-.65l-8.86-.92c-.28 0-.54.01-.8.02l.33-.07-.33-.03-12.64-.3-6.69-.6-3.73-.5 3.73.5 4.46.3-3.72-.6 7.44.5L310.11 8l-5.21-.3 1.49-.1-6.7-.8-14.13-1.1-9.67.3 8.19-.4 4.46-.2-14.87-.3.74-.5c-5.96-.3-13.39-.5-20.83-.6h-.74l-12.64.4 11.16-.6-.74-.9c-7.16.08-14.8.61-22.54.61-1.9 0-3.81-.03-5.72-.11l1.48.2-11.15.1c-6.32.39-12.45.82-18.42 1.29l5.04.71-5.04-.71c-21.49 1.66-40.5 3.78-54.46 6.51 10.41-.6 20.83-1.2 29.75-2.1 13.4-.9 26.8-1.32 40.75-1.32 1.54 0 3.07.01 4.62.02l-15.62 1.6h.74l-3.72.6 2.97-.6c-23.8 0-41.64 2.2-63.21 2.3l3.72-.5-37.92 1.8-14.13 2.6 11.9.2-6.69.5c-.98.18-4.81.45-5.19.69-.24.16.94.31 5.22.42 4.27.11 11.64.18 23.77.18l12.64-.2c-14.13.8-26.77 1.7-37.18 3.2l9.67.8c9.97-.44 20.29-.64 30.63-.64 6.86 0 13.73.09 20.51.26 20.38.52 40.08 1.78 56.69 3.58 5.95.6 14.87.9 23.8 1.1h1.49l-4.46-.5 6.69.4-10.41-1.6 13.38 1.4 2.23-.2-11.16-1 12.65.9 2.98-.4 11.16 1.4m106.34-6.3c11.16.7 20.82 1.9 34.95 2.3-14.13-.4-23.8-1.6-34.95-2.3l-4.46-.3-2.97-.1 2.97.1 4.46.3-.74.3-11.9-.3 11.9.3.74-.3m-61.72.4c10.4.1 17.1 1.6 26.77 1.7-9.67-.1-16.37-1.6-26.77-1.7m-8.93 0h-.74l-7.44-.2 7.44.2h.74c8.93.4 15.62 1.2 24.54 1.5-8.92-.3-15.61-1.1-24.54-1.5m62.47.1-4.46.3 4.46-.3m-207.49-3.9-19.34 1 19.34-1m0 0-19.34 1 19.34-1m0 0 2.97-.1 2.97-.2 2.98-.1 2.82-.19c.1 0 .2-.01.29-.02l2.84-.09 2.97-.2 2.97-.1 2.98-.2 2.97-.2 2.23-.1 2.97-.2 2.98-.2 2.97-.2 2.24-.2 2.97-.2 2.23-.3c-11.45.27-21.24.98-30.92 1.73l-1.05.07-.79.07-3.57.27-.85.06-2.97.2-1.66.15c-1.18.08-2.36.17-3.55.25m-49.08-.6c1.29 0 2.61.02 3.94.02.9 0 1.83-.02 2.75-.02h2.98l2.97-.1 3.73-.1 1.78-.12c1.61-.09 3.23-.18 4.85-.28h.07l2.97-.2-2.97.2 2.97-.2-2.97.2h-.03c1-.07 1.99-.13 3-.2-1.21.1-2.52.17-3.86.23l-2.1.07-3.71.1-1.17.04-3.48.06h-2.04l-2.12.07c-2.62.05-5.18.11-7.55.23m310.11-6.5v.3l2.98.3-2.98-.6"/>
    <path class="cls-9" d="M148.74 16.7c3.89-.2 7.82-.39 11.74-.59l-2.82.19-2.98.1-2.97.2-2.97.1m3.55-.25 1.66-.15 2.97-.2.85-.06c-1.81.13-3.64.27-5.47.4m8.47-.35c11.73-.59 23.35-1.23 33.32-2.19l-2.23.3-2.97.2-2.24.2-2.97.2-2.98.2-2.97.2-2.23.1-2.97.2-2.98.2-2.97.1-2.97.2-2.84.09m.56-.32.79-.07 1.05-.07-1.84.14"/>
    <path d="m336.14 10.1.33-.07.48.05c-.28 0-.54.01-.8.02" style="fill:#a0ac91"/>
    <path class="cls-1" d="m199.3 5.7-5.03-.71 5.03.71m253.6 12.5-3.72-.3 3.72.3m-13.39-2.5-16.36-.3 16.36.3m-26.02-2.2 17.84-.3-17.84.3"/>
    <path d="m148.74 16.7 2.97-.1 2.97-.2 2.98-.1 2.82-.19-2.82.19-2.98.1-2.97.2-2.97.1m3.55-.25 1.65-.15 2.97-.2.85-.06-.85.06-2.97.2-1.65.15m8.48-.36 2.84-.09 2.97-.2 2.98-.1 2.97-.2 2.98-.2 2.23-.1 2.97-.2 2.98-.2 2.97-.2 2.23-.2 2.98-.2 2.22-.3-2.22.3-2.98.2-2.23.2-2.97.2-2.98.2-2.97.2-2.23.1-2.98.2-2.97.2-2.98.1-2.97.2-2.84.09m.56-.32.79-.07 1.05-.07-1.05.07-.79.07M129.4 17.7l19.34-1-19.34 1m0 0 19.34-1-19.34 1" style="fill:#91a081"/>
    <path class="cls-18" d="M233.51 26c-8.92-.2-17.85-.5-23.8-1.1-16.61-1.8-36.31-3.06-56.69-3.58 20.38.52 40.08 1.78 56.69 3.58 5.95.6 14.87.9 23.8 1.1m-131.62-4.3c9.97-.44 20.29-.64 30.63-.64-10.34 0-20.65.2-30.63.64"/>
    <path class="cls-9" d="M109.32 16.1h-2.98c3.74-.03 7.57-.13 11.45-.32l-1.78.12-3.73.1-2.97.1m-2.11-.23 2.12-.07h2.04c-1.4.02-2.79.05-4.17.07m7.65-.13 1.17-.04 3.71-.1 2.1-.07c-2.22.1-4.56.16-6.98.21m7.8-.24h.07-.07"/>
    <path class="cls-6" d="m81.8 14.7 1.49-.1-1.49.1"/>
    <path class="cls-3" d="M87.75 15.9c-18.59-.4-36.44-1.6-55.03-1.9l11.16-1.4-1.49.2c2.48.07 5.62.08 9.06.08h5.34c5.49 0 11.25.02 16.09.22l5.95.8v.1l.74.6-4.47.6 6.7-.5 1.49-.1 18.59-1.3-14.13 2.6"/>
    <path class="cls-11" d="M51.45 12.88c-3.44 0-6.58-.01-9.06-.08 2.48.07 5.61.08 9.05.08h5.35-5.34m-9.06-.08 1.49-.2-1.49.2"/>
    <path class="cls-17" d="m79.58 14.6-.75-.6v-.1l.75.7"/>
    <path class="cls-11" d="m87.75 15.9 14.14-2.6-14.14 2.6"/>
    <path class="cls-3" d="M84.58 22.36c-11.13 0-25.21-.68-36.99-1.26 9.67-2 26.77-3.5 40.16-5.2l11.9.2-6.69.5c-.98.18-4.81.45-5.19.69-.24.16.94.31 5.22.42 4.27.11 11.64.18 23.77.18l12.64-.2c-14.13.8-26.77 1.7-37.18 3.2l9.67.8-5.95.3c-2.35.19-5.12.29-8.19.33-1.02 0-2.07.01-3.16.02"/>
    <path class="cls-11" d="M92.22 20.9c10.41-1.5 23.05-2.4 37.18-3.2-14.13.8-26.77 1.7-37.18 3.2m-4.45-3.61c.38-.25 4.21-.52 5.19-.69l6.69-.5-6.69.5c-.98.18-4.81.45-5.19.69"/>
    <path d="M122.81 24.1c-6.15 0-12.29-.02-18.44-.03-18.43-.06-36.86-.19-55.29-.37-5.58-.22-11.16-.34-16.74-.34-1.86.01-3.72.03-5.57.04C20.82 21 15.61 18.6 11.9 16l20.82-2c18.59.3 36.44 1.5 55.03 1.9-13.38 1.7-30.49 3.2-40.16 5.2 11.78.58 25.86 1.26 36.99 1.26 1.08 0 2.13-.01 3.15-.02 3.07-.04 5.85-.15 8.19-.33l5.95-.3c6.41.49 13.3.75 20.51.88 7.23.13 14.76.14 22.45.14h3.86c4.13 0 8.3.02 12.46.03 4.29.02 8.58.07 12.85.15l2.23.9c-17.81.21-35.63.3-53.44.3" style="fill:#a4b097"/>
    <path class="cls-1" d="M104.38 24.07c-18.43-.06-36.86-.19-55.29-.37 18.43.17 36.86.31 55.29.37m56.79-1.32c-4.17 0-8.33-.02-12.46-.03h-3.86c-7.69 0-15.23 0-22.45-.14 7.23.13 14.76.14 22.45.14h3.86c4.13 0 8.29.02 12.46.03"/>
    <path d="M84.59 22.36c1.09 0 2.14-.01 3.16-.02-1.02 0-2.07.01-3.15.02M47.59 21.1c9.67-2 26.77-3.5 40.16-5.2-13.38 1.7-30.49 3.2-40.16 5.2" style="fill:#899977"/>
    <path class="cls-6" d="m49.08 23.7-22.31-.3c1.86-.01 3.71-.03 5.57-.04 5.57 0 11.16.11 16.74.34"/>
    <path class="cls-17" d="m49.08 23.7-22.31-.3 22.31.3"/>
  </g>
</svg>
