<svg width="358" height="27" viewBox="0 0 358 27" fill="none" xmlns="http://www.w3.org/2000/svg"><path opacity=".8" d="m163.631 27 2.852-.23 3.581-.69.713-.919-10.004-1.264 5.71.345-8.567-1.264 10.717.804v-.575l-3.571-.46c-8.573-.459-17.864-.459-25.723-1.148 3.663-.146 7.332-.2 11.027-.2 7.813 0 15.73.238 23.987.314l2.858-.23c-10.728-.689-22.866-1.034-30.726-2.528.786 0 1.55-.007 2.305-.015 14.774 0 25.093 1.977 40.089 1.977h1.194c-7.147-1.035-18.577-1.84-25.724-2.874 11.436.92 22.153 2.07 32.87 3.218h1.432c14.288.537 27.15 1.012 40.017 1.494 20.711.92 40.011 1.84 60.02 3.103l-15.72-2.183c10.005-1.15 21.435-.805 30.726-1.264l2.853-.115c-12.144-1.84-27.858-2.529-40.007-3.908 8.578.345 15.719 1.38 25.719 1.494l-2.853-.46c9.286.23 17.141.92 25.011 1.61 8.572-1.494 18.577-2.989 28.581-3.104H358l-10.717-.69 3.57.346-15.006-1.264-13.575-1.954 15.714.345-4.278-.805c-7.86-.345-15.007-.804-20.722-1.724l17.146-.345 10.004-1.494-1.426-1.953c-6.072-1.517-15.968-2.422-27.873-2.422-.703 0-1.422 0-2.14.008l.708 1.724-3.565-1.15-6.429 1.265-6.433-.23c-3.571 1.034-8.222 1.326-13.219 1.326s-10.36-.292-15.363-.406l4.289.574c-2.284.736-5.033.973-7.911.973-4.33 0-8.95-.536-12.81-.743l-8.516-1.05c-.269 0-.517.016-.77.016l.315-.077-.315-.038-12.149-.345-6.428-.69 4.289.345-3.571-.69 7.147.575-14.293-1.494-5.003-.345 1.432-.114-6.434-.92-13.575-1.264-9.296.345 7.87-.46 4.284-.23-14.293-.345.713-.574c-5.72-.345-12.867-.575-20.014-.69h-.708l-12.148.46 10.717-.69L156.505 0c-6.883.092-14.226.705-21.657.705-1.829 0-3.664-.038-5.498-.13l1.421.23-10.712.114c-6.072.452-11.963.95-17.704 1.48-20.65 1.907-38.911 4.336-52.326 7.485 10.004-.69 20.009-1.38 28.581-2.414 12.873-1.034 25.75-1.51 39.154-1.51 1.478 0 2.951.016 4.434.016l-15.006 1.839h.713l-3.571.69 2.858-.69c-22.861 0-40.012 2.528-60.734 2.643l3.571-.574-36.44 2.068L.007 14.94l11.436.23-6.429.575c-.94.2-4.62.513-4.986.797-.233.184.904.36 5.012.482 4.108.123 11.183.207 22.84.207l12.144-.23c-13.575.92-25.724 1.954-35.728 3.678l9.291.92c9.575-.506 19.492-.736 29.424-.736 6.588 0 13.187.107 19.708.299 19.585.597 38.514 2.045 54.471 4.114 5.715.69 14.293 1.034 22.861 1.264h1.431l-4.289-.574 6.428.46-10.004-1.84 12.862 1.61 2.144-.23-10.727-1.15 12.154 1.035 2.862-.46L163.631 27ZM58.587 15.852l2.857-.115 2.858-.23 2.862-.115 2.708-.214c.098 0 .191-.015.28-.015l2.728-.108 2.857-.23 2.858-.114 2.863-.23 2.857-.23 2.145-.115 2.857-.23 2.863-.23 2.853-.23 2.15-.23 2.857-.23 2.139-.344c-11.001.306-20.406 1.134-29.713 1.984l-1.007.085-.765.084c-1.137.107-2.284.207-3.426.314l-.817.061-2.852.23-1.592.169c-1.136.1-2.263.191-3.41.29m-47.159-.689c1.24.008 2.507.016 3.788.03.868-.007 1.757-.014 2.64-.03h2.864l2.852-.115 3.581-.115 1.71-.137c1.55-.092 3.101-.2 4.656-.322h.062l2.858-.238-2.858.23h-.025l2.883-.23a84.046 84.046 0 0 1-3.71.26l-2.015.085-3.566.115-1.127.046-3.338.069H20.73l-2.042.084c-2.516.061-4.976.13-7.25.26m297.957-7.47v.345l2.863.345-2.863-.69Z" fill="#D9D3DD"/></svg>
