<svg width="360" height="27" viewBox="0 0 360 27" fill="none" xmlns="http://www.w3.org/2000/svg">
<path opacity="0.8" d="M164.545 27L167.413 26.7701L171.014 26.0806L171.731 25.1612L161.671 23.897L167.413 24.2418L158.798 22.9776L169.575 23.7821V23.2074L165.984 22.7477C157.364 22.288 148.021 22.288 140.117 21.5985C143.801 21.4529 147.491 21.3993 151.206 21.3993C159.063 21.3993 167.024 21.6368 175.327 21.7134L178.201 21.4835C167.413 20.794 155.207 20.4492 147.303 18.9552C148.093 18.9552 148.862 18.9475 149.621 18.9398C164.477 18.9398 174.854 20.9166 189.934 20.9166C190.329 20.9166 190.734 20.9166 191.135 20.9166C183.948 19.8822 172.454 19.0778 165.267 18.0434C176.767 18.9628 187.544 20.1121 198.321 21.2613H199.761C214.128 21.7977 227.062 22.2727 240.001 22.7554C260.828 23.6748 280.236 24.5942 300.356 25.8584L284.549 23.6748C294.609 22.5255 306.104 22.8703 315.447 22.4106L318.315 22.2957C306.104 20.4569 290.302 19.7673 278.085 18.3882C286.711 18.733 293.892 19.7673 303.947 19.8822L301.079 19.4225C310.417 19.6524 318.315 20.3419 326.229 21.0315C334.85 19.5375 344.91 18.0434 354.97 17.9285H360L349.223 17.2389L352.813 17.5837L337.723 16.3195L324.073 14.3658L339.875 14.7106L335.572 13.9061C327.668 13.5613 320.482 13.1016 314.735 12.1822L331.976 11.8374L342.036 10.3434L340.602 8.38962C334.496 6.87259 324.545 5.9685 312.573 5.9685C311.866 5.9685 311.144 5.9685 310.422 5.97617L311.134 7.70006L307.548 6.5508L301.084 7.81499L294.614 7.58513C291.024 8.61947 286.347 8.91061 281.322 8.91061C276.297 8.91061 270.904 8.61947 265.874 8.50454L270.186 9.07917C267.89 9.8147 265.125 10.0522 262.231 10.0522C257.876 10.0522 253.231 9.51589 249.349 9.30902L240.786 8.25936C240.515 8.25936 240.266 8.27469 240.011 8.27469L240.328 8.19807L240.011 8.15976L227.795 7.81499L221.33 7.12543L225.643 7.4702L222.053 6.78065L229.239 7.35528L214.866 5.86124L209.836 5.51646L211.276 5.40153L204.806 4.48213L191.155 3.21794L181.807 3.56271L189.721 3.10301L194.029 2.87316L179.656 2.52838L180.373 1.95375C174.621 1.60897 167.434 1.37912 160.248 1.26419H159.536L147.319 1.72389L158.096 1.03434L157.379 0C150.458 0.091941 143.074 0.704885 135.601 0.704885C133.762 0.704885 131.917 0.666572 130.072 0.574631L131.501 0.804486L120.729 0.919413C114.624 1.37146 108.7 1.86947 102.927 2.39813C82.1622 4.30591 63.7983 6.73468 50.3086 9.88365C60.3687 9.1941 70.4289 8.50454 79.0496 7.4702C91.9937 6.43587 104.943 5.96084 118.422 5.96084C119.908 5.96084 121.389 5.97617 122.881 5.97617L107.791 7.81499H108.508L104.917 8.50454L107.791 7.81499C84.8019 7.81499 67.5553 10.3434 46.718 10.4583L50.3086 9.88365C38.0868 10.5732 25.8806 11.2628 13.6641 11.9523L0.00807205 14.9404L11.5076 15.1703L5.04332 15.7449C4.09759 15.9441 0.397802 16.2582 0.0288618 16.5417C-0.204973 16.7256 0.93822 16.9018 5.06931 17.0244C9.2004 17.147 16.3142 17.2313 28.0371 17.2313L40.2485 17.0014C26.5977 17.9208 14.3811 18.9552 4.32103 20.6791L13.6641 21.5985C23.2929 21.0928 33.2646 20.8629 43.252 20.8629C49.8773 20.8629 56.5131 20.9702 63.0708 21.1617C82.765 21.7594 101.799 23.2074 117.845 25.2761C123.593 25.9657 132.219 26.3104 140.834 26.5403H142.273L137.96 25.9657L144.425 26.4254L134.365 24.5865L147.298 26.1955L149.455 25.9657L138.667 24.8164L150.889 25.8507L153.768 25.391L164.545 27ZM58.9138 15.8522L61.7873 15.7372L64.6609 15.5074L67.5397 15.3924L70.2626 15.1779C70.3613 15.1779 70.4548 15.1626 70.5432 15.1626L73.2868 15.0553L76.1604 14.8255L79.034 14.7106L81.9128 14.4807L84.7863 14.2509L86.9428 14.1359L89.8164 13.9061L92.6952 13.6762L95.5635 13.4464L97.7252 13.2165L100.599 12.9867L102.75 12.6419C91.6871 12.9484 82.2297 13.7758 72.8711 14.6263L71.8578 14.7106L71.0888 14.7948C69.9456 14.9021 68.792 15.0017 67.6436 15.109L66.8226 15.1703L63.9542 15.4001L62.3537 15.5687C61.2105 15.6683 60.0777 15.7602 58.9242 15.8598M11.5024 15.1703C12.7495 15.1779 14.0226 15.1856 15.3113 15.2009C16.1843 15.1932 17.078 15.1856 17.9666 15.1703H20.8454L23.7138 15.0553L27.3148 14.9404L29.0348 14.8025C30.5937 14.7106 32.1526 14.6033 33.7167 14.4807H33.7791L36.6526 14.2432L33.7791 14.473H33.7531C34.7196 14.3964 35.6809 14.3198 36.6526 14.2432C35.4887 14.3581 34.2156 14.4347 32.9217 14.5037L30.8951 14.588L27.3096 14.7029L26.1768 14.7489C25.07 14.7718 23.9476 14.7948 22.82 14.8178H20.8454L18.7928 14.9021C16.2622 14.9634 13.7888 15.0324 11.5024 15.1626M311.123 7.69239V8.03718L314.002 8.38195L311.123 7.69239Z" fill="#D9D3DD"/>
</svg>
